<svg width="153" height="38" viewBox="0 0 153 38" fill="none" xmlns="http://www.w3.org/2000/svg">
<g id="Group 2">
<g id="BudgeT">
<path d="M0 29.7492V1.54944H9.87768C13.2994 1.54944 15.8947 2.20795 17.6636 3.52497C19.4326 4.82909 20.317 6.74652 20.317 9.27727C20.317 10.6589 19.9619 11.879 19.2518 12.9378C18.5416 13.9837 17.5539 14.752 16.2885 15.2426C17.7346 15.6041 18.8709 16.3337 19.6972 17.4312C20.5365 18.5287 20.9562 19.8716 20.9562 21.4597C20.9562 24.1713 20.0911 26.2243 18.3609 27.6188C16.6306 29.0133 14.1645 29.7234 10.9623 29.7492H0ZM5.8104 17.4699V25.0816H10.788C12.1566 25.0816 13.2219 24.7588 13.9837 24.1131C14.7584 23.4546 15.1458 22.5508 15.1458 21.4016C15.1458 18.8192 13.8094 17.5087 11.1366 17.4699H5.8104ZM5.8104 13.3639H10.1101C13.0411 13.3123 14.5066 12.1437 14.5066 9.85831C14.5066 8.58002 14.1322 7.66327 13.3833 7.10805C12.6473 6.53993 11.4788 6.25586 9.87768 6.25586H5.8104V13.3639Z" fill="black"/>
<path d="M37.5158 27.6188C36.1342 29.2973 34.2232 30.1366 31.7829 30.1366C29.5362 30.1366 27.8189 29.491 26.631 28.1998C25.456 26.9086 24.8556 25.017 24.8298 22.525V8.79307H30.4271V22.3313C30.4271 24.5134 31.4213 25.6045 33.4098 25.6045C35.3078 25.6045 36.612 24.946 37.3221 23.629V8.79307H42.9388V29.7492H37.6707L37.5158 27.6188Z" fill="black"/>
<path d="M46.2895 19.1162C46.2895 15.8495 47.019 13.2477 48.4781 11.3109C49.9501 9.37411 51.9579 8.40571 54.5015 8.40571C56.5416 8.40571 58.2266 9.16752 59.5566 10.6911V0H65.1733V29.7492H60.1182L59.8471 27.5219C58.4526 29.265 56.6578 30.1366 54.4628 30.1366C51.9966 30.1366 50.0146 29.1682 48.5168 27.2314C47.0319 25.2817 46.2895 22.5766 46.2895 19.1162ZM51.8869 19.5229C51.8869 21.4856 52.229 22.9898 52.9134 24.0357C53.5977 25.0816 54.5919 25.6045 55.896 25.6045C57.6262 25.6045 58.8464 24.875 59.5566 23.4159V15.1458C58.8593 13.6867 57.6521 12.9572 55.9348 12.9572C53.2362 12.9572 51.8869 15.1458 51.8869 19.5229Z" fill="black"/>
<path d="M68.6983 19.1162C68.6983 15.9011 69.4601 13.3123 70.9837 11.3496C72.5202 9.38702 74.5861 8.40571 77.1814 8.40571C79.4798 8.40571 81.2681 9.19334 82.5464 10.7686L82.7788 8.79307H87.8532V29.052C87.8532 30.8855 87.4336 32.4801 86.5943 33.8359C85.7679 35.1916 84.5994 36.2246 83.0887 36.9348C81.578 37.6449 79.809 38 77.7819 38C76.2453 38 74.7475 37.6901 73.2885 37.0703C71.8294 36.4635 70.7254 35.6758 69.9766 34.7074L72.4557 31.2987C73.8502 32.861 75.5416 33.6422 77.5301 33.6422C79.015 33.6422 80.1706 33.2419 80.9969 32.4414C81.8233 31.6538 82.2365 30.5304 82.2365 29.0714V27.948C80.9453 29.4071 79.2474 30.1366 77.1427 30.1366C74.6249 30.1366 72.5848 29.1553 71.0224 27.1927C69.473 25.2171 68.6983 22.6024 68.6983 19.3486V19.1162ZM74.2956 19.5229C74.2956 21.421 74.6765 22.9123 75.4383 23.9969C76.2001 25.0686 77.246 25.6045 78.5759 25.6045C80.2803 25.6045 81.5005 24.9653 82.2365 23.6871V14.8746C81.4876 13.5963 80.2803 12.9572 78.6147 12.9572C77.2718 12.9572 76.2131 13.5059 75.4383 14.6035C74.6765 15.701 74.2956 17.3408 74.2956 19.5229Z" fill="black"/>
<path d="M101.818 30.1366C98.7445 30.1366 96.2396 29.194 94.3028 27.3089C92.3789 25.4237 91.4169 22.9123 91.4169 19.7747V19.2324C91.4169 17.1278 91.8237 15.2491 92.6371 13.5963C93.4506 11.9307 94.5997 10.6524 96.0846 9.76147C97.5824 8.85763 99.2868 8.40571 101.198 8.40571C104.064 8.40571 106.317 9.30955 107.957 11.1172C109.61 12.9249 110.436 15.4879 110.436 18.8063V21.0917H97.0917C97.2725 22.4604 97.8148 23.5579 98.7187 24.3843C99.6354 25.2107 100.791 25.6239 102.186 25.6239C104.342 25.6239 106.027 24.8427 107.241 23.2803L109.991 26.3598C109.152 27.5477 108.015 28.4774 106.582 29.1488C105.149 29.8073 103.561 30.1366 101.818 30.1366ZM101.178 12.9378C100.068 12.9378 99.1641 13.3123 98.4669 14.0612C97.7825 14.8101 97.3435 15.8818 97.1498 17.2762H104.936V16.8308C104.91 15.5912 104.574 14.6357 103.929 13.9643C103.283 13.28 102.366 12.9378 101.178 12.9378Z" fill="black"/>
<path d="M135.227 6.25586H126.589V29.7492H120.779V6.25586H112.257V1.54944H135.227V6.25586Z" fill="black"/>
</g>
<g id="Group 1">
<circle id="Ellipse 1" cx="142.923" cy="19.8328" r="9.91641" fill="#136CB2"/>
<path id="$" d="M144.293 22.2867C144.293 21.9067 144.19 21.6055 143.985 21.383C143.784 21.1559 143.44 20.9474 142.953 20.7574C142.466 20.5674 142.047 20.3797 141.694 20.1943C141.341 20.0043 141.037 19.7888 140.783 19.5478C140.533 19.3022 140.336 19.0149 140.193 18.6858C140.055 18.3568 139.986 17.9652 139.986 17.511C139.986 16.7278 140.227 16.0859 140.709 15.5854C141.191 15.0849 141.832 14.7929 142.632 14.7095V13.2219H143.703V14.7304C144.494 14.8462 145.112 15.1892 145.559 15.7592C146.005 16.3246 146.228 17.0592 146.228 17.9629H144.293C144.293 17.4067 144.181 16.992 143.958 16.7185C143.739 16.4405 143.444 16.3014 143.074 16.3014C142.707 16.3014 142.424 16.4103 142.223 16.6282C142.022 16.8413 141.922 17.1379 141.922 17.518C141.922 17.8702 142.02 18.1529 142.216 18.3661C142.413 18.5792 142.777 18.7971 143.308 19.0195C143.844 19.242 144.284 19.4528 144.628 19.6521C144.971 19.8467 145.262 20.0692 145.498 20.3194C145.735 20.5651 145.916 20.8478 146.041 21.1675C146.166 21.4827 146.228 21.8511 146.228 22.2728C146.228 23.0607 145.992 23.7002 145.518 24.1915C145.045 24.6827 144.393 24.9724 143.563 25.0604V26.4438H142.498V25.0674C141.582 24.9654 140.872 24.6294 140.368 24.0594C139.867 23.4847 139.617 22.7224 139.617 21.7723H141.553C141.553 22.3238 141.678 22.7479 141.928 23.0445C142.183 23.3364 142.547 23.4824 143.02 23.4824C143.413 23.4824 143.723 23.3758 143.951 23.1626C144.179 22.9448 144.293 22.6529 144.293 22.2867Z" fill="white"/>
</g>
</g>
</svg>
